<?xml version="1.0" encoding="UTF-8" standalone="no"?>
<!DOCTYPE svg PUBLIC "-//W3C//DTD SVG 1.1//EN"
 "http://www.w3.org/Graphics/SVG/1.1/DTD/svg11.dtd">
<!-- Generated by graphviz version 2.40.1 (20161225.0304)
 -->
<!-- Title: %3 Pages: 1 -->
<svg width="434pt" height="248pt"
 viewBox="0.00 0.00 434.21 247.91" xmlns="http://www.w3.org/2000/svg" xmlns:xlink="http://www.w3.org/1999/xlink">
<g id="graph0" class="graph" transform="scale(1 1) rotate(0) translate(4 243.9066)">
<title>%3</title>
<polygon fill="#ffffff" stroke="transparent" points="-4,4 -4,-243.9066 430.2132,-243.9066 430.2132,4 -4,4"/>
<!-- Home Odds -->
<g id="node1" class="node">
<title>Home Odds</title>
<polygon fill="#d3d3d3" stroke="#000000" points="138,-239.9066 78,-239.9066 78,-221.9066 138,-221.9066 138,-239.9066"/>
<text text-anchor="middle" x="108" y="-228.7066" font-family="Times,serif" font-size="9.00" fill="#000000">Home Odds</text>
</g>
<!-- Home Bet -->
<g id="node6" class="node">
<title>Home Bet</title>
<ellipse fill="#add8e6" stroke="#000000" cx="92" cy="-148.43" rx="37.4533" ry="37.4533"/>
<text text-anchor="middle" x="92" y="-146.23" font-family="Times,serif" font-size="9.00" fill="#000000">Home Bet</text>
</g>
<!-- Home Odds&#45;&gt;Home Bet -->
<g id="edge16" class="edge">
<title>Home Odds&#45;&gt;Home Bet</title>
<path fill="none" stroke="#00ff00" stroke-width=".2376" stroke-dasharray="1,5" d="M106.2266,-221.7651C104.9329,-215.0964 103.0707,-205.4973 101.1179,-195.4308"/>
<polygon fill="#00ff00" stroke="#00ff00" stroke-width=".2376" points="104.493,-194.4502 99.1525,-185.2998 97.6211,-195.7834 104.493,-194.4502"/>
</g>
<!-- Away Bet -->
<g id="node7" class="node">
<title>Away Bet</title>
<ellipse fill="#add8e6" stroke="#000000" cx="256" cy="-37.4767" rx="37.4533" ry="37.4533"/>
<text text-anchor="middle" x="256" y="-35.2767" font-family="Times,serif" font-size="9.00" fill="#000000">Away Bet</text>
</g>
<!-- Home Odds&#45;&gt;Away Bet -->
<g id="edge2" class="edge">
<title>Home Odds&#45;&gt;Away Bet</title>
<path fill="none" stroke="#ff0000" stroke-width=".1647" stroke-dasharray="1,5" d="M86.5561,-221.7796C72.207,-214.3985 54.4575,-202.4954 46,-185.9066 30.8693,-156.2286 26.7226,-138.1215 46,-110.9533 65.201,-83.8927 153.214,-60.0599 209.0287,-47.3106"/>
<polygon fill="#ff0000" stroke="#ff0000" stroke-width=".1647" points="210.0613,-50.6659 219.0519,-45.0607 208.5281,-43.8359 210.0613,-50.6659"/>
</g>
<!-- Bet Size -->
<g id="node9" class="node">
<title>Bet Size</title>
<ellipse fill="#add8e6" stroke="#000000" cx="295" cy="-148.43" rx="32.5538" ry="32.5538"/>
<text text-anchor="middle" x="295" y="-146.23" font-family="Times,serif" font-size="9.00" fill="#000000">Bet Size</text>
</g>
<!-- Home Odds&#45;&gt;Bet Size -->
<g id="edge6" class="edge">
<title>Home Odds&#45;&gt;Bet Size</title>
<path fill="none" stroke="#ff0000" stroke-width=".1301" d="M138.0827,-225.6773C168.7451,-219.4466 216.9359,-207.1161 254,-185.9066 257.6724,-183.8052 261.2903,-181.3232 264.7645,-178.6529"/>
<polygon fill="#ff0000" stroke="#ff0000" stroke-width=".1301" points="267.1122,-181.2528 272.5683,-172.1708 262.6395,-175.8681 267.1122,-181.2528"/>
</g>
<!-- Away Odds -->
<g id="node2" class="node">
<title>Away Odds</title>
<polygon fill="#d3d3d3" stroke="#000000" points="60,-239.9066 0,-239.9066 0,-221.9066 60,-221.9066 60,-239.9066"/>
<text text-anchor="middle" x="30" y="-228.7066" font-family="Times,serif" font-size="9.00" fill="#000000">Away Odds</text>
</g>
<!-- Away Odds&#45;&gt;Home Bet -->
<g id="edge4" class="edge">
<title>Away Odds&#45;&gt;Home Bet</title>
<path fill="none" stroke="#00ff00" stroke-width=".2387" stroke-dasharray="1,5" d="M36.872,-221.7651C43.3471,-213.1514 53.4976,-199.6485 63.3332,-186.5645"/>
<polygon fill="#00ff00" stroke="#00ff00" stroke-width=".2387" points="66.1697,-188.616 69.3808,-178.5195 60.5743,-184.4098 66.1697,-188.616"/>
</g>
<!-- Ensemble -->
<g id="node3" class="node">
<title>Ensemble</title>
<polygon fill="#d3d3d3" stroke="#000000" points="403.5,-239.9066 352.5,-239.9066 352.5,-221.9066 403.5,-221.9066 403.5,-239.9066"/>
<text text-anchor="middle" x="378" y="-228.7066" font-family="Times,serif" font-size="9.00" fill="#000000">Ensemble</text>
</g>
<!-- Ensemble&#45;&gt;Bet Size -->
<g id="edge5" class="edge">
<title>Ensemble&#45;&gt;Bet Size</title>
<path fill="none" stroke="#ff0000" stroke-width=".2511" stroke-dasharray="1,5" d="M368.8004,-221.7651C358.4267,-211.4567 341.006,-194.1459 325.6946,-178.9311"/>
<polygon fill="#ff0000" stroke="#ff0000" stroke-width=".2511" points="327.9481,-176.2362 318.3877,-171.6702 323.014,-181.2016 327.9481,-176.2362"/>
</g>
<!-- 214 -->
<g id="node10" class="node">
<title>214</title>
<ellipse fill="#ffffff" stroke="#000000" cx="405" cy="-148.43" rx="21.4286" ry="21.4286"/>
<text text-anchor="middle" x="405" y="-146.23" font-family="Times,serif" font-size="9.00" fill="#000000">214</text>
</g>
<!-- Ensemble&#45;&gt;214 -->
<g id="edge10" class="edge">
<title>Ensemble&#45;&gt;214</title>
<path fill="none" stroke="#00ff00" stroke-width=".3" stroke-dasharray="1,5" d="M380.9926,-221.7651C384.4166,-211.306 390.2004,-193.6382 395.233,-178.265"/>
<polygon fill="#00ff00" stroke="#00ff00" stroke-width=".3" points="398.6144,-179.1855 398.3994,-168.5928 391.9618,-177.0076 398.6144,-179.1855"/>
</g>
<!-- &#45;4 -->
<g id="node4" class="node">
<title>&#45;4</title>
<polygon fill="#d3d3d3" stroke="#000000" points="307,-239.9066 283,-239.9066 283,-221.9066 307,-221.9066 307,-239.9066"/>
<text text-anchor="middle" x="295" y="-228.7066" font-family="Times,serif" font-size="9.00" fill="#000000">&#45;4</text>
</g>
<!-- &#45;4&#45;&gt;Home Bet -->
<g id="edge13" class="edge">
<title>&#45;4&#45;&gt;Home Bet</title>
<path fill="none" stroke="#00ff00" stroke-width=".2523" stroke-dasharray="1,5" d="M282.7455,-226.539C261.0675,-218.7538 214.6014,-201.8005 176,-185.9066 162.6919,-180.4271 148.3432,-174.1609 135.3359,-168.341"/>
<polygon fill="#00ff00" stroke="#00ff00" stroke-width=".2523" points="136.6911,-165.1128 126.1356,-164.1997 133.8178,-171.496 136.6911,-165.1128"/>
</g>
<!-- &#45;4&#45;&gt;Away Bet -->
<g id="edge12" class="edge">
<title>&#45;4&#45;&gt;Away Bet</title>
<path fill="none" stroke="#00ff00" stroke-width=".3" stroke-dasharray="1,5" d="M307.2137,-222.1428C317.3536,-214.0495 331.0434,-201.0187 337,-185.9066 349.2159,-154.9147 350.4932,-141.4109 337,-110.9533 328.4865,-91.7363 312.1892,-75.3994 296.4319,-63.0452"/>
<polygon fill="#00ff00" stroke="#00ff00" stroke-width=".3" points="298.3899,-60.139 288.2853,-56.9537 294.198,-65.7452 298.3899,-60.139"/>
</g>
<!-- No Bet -->
<g id="node8" class="node">
<title>No Bet</title>
<ellipse fill="#add8e6" stroke="#000000" cx="215" cy="-148.43" rx="29.8983" ry="29.8983"/>
<text text-anchor="middle" x="215" y="-146.23" font-family="Times,serif" font-size="9.00" fill="#000000">No Bet</text>
</g>
<!-- &#45;4&#45;&gt;No Bet -->
<g id="edge11" class="edge">
<title>&#45;4&#45;&gt;No Bet</title>
<path fill="none" stroke="#00ff00" stroke-width=".3" stroke-dasharray="1,5" d="M286.1329,-221.7651C275.7846,-211.0963 258.1607,-192.9268 243.045,-177.3432"/>
<polygon fill="#00ff00" stroke="#00ff00" stroke-width=".3" points="245.3437,-174.6861 235.8689,-169.9449 240.3191,-179.5599 245.3437,-174.6861"/>
</g>
<!-- &#45;4&#45;&gt;Bet Size -->
<g id="edge8" class="edge">
<title>&#45;4&#45;&gt;Bet Size</title>
<path fill="none" stroke="#00ff00" stroke-width=".1825" stroke-dasharray="1,5" d="M295,-221.7651C295,-214.1744 295,-202.7868 295,-191.235"/>
<polygon fill="#00ff00" stroke="#00ff00" stroke-width=".1825" points="298.5001,-191.1324 295,-181.1324 291.5001,-191.1325 298.5001,-191.1324"/>
</g>
<!-- &#45;4&#45;&gt;214 -->
<g id="edge7" class="edge">
<title>&#45;4&#45;&gt;214</title>
<path fill="none" stroke="#ff0000" stroke-width=".2886" d="M307.0977,-224.992C322.5035,-217.1681 349.5732,-202.4246 370,-185.9066 374.8782,-181.962 379.7228,-177.3493 384.1826,-172.7352"/>
<polygon fill="#ff0000" stroke="#ff0000" stroke-width=".2886" points="387.0383,-174.8026 391.2631,-165.0865 381.9014,-170.0473 387.0383,-174.8026"/>
</g>
<!-- &#45;5 -->
<g id="node5" class="node">
<title>&#45;5</title>
<polygon fill="#d3d3d3" stroke="#000000" points="211,-239.9066 187,-239.9066 187,-221.9066 211,-221.9066 211,-239.9066"/>
<text text-anchor="middle" x="199" y="-228.7066" font-family="Times,serif" font-size="9.00" fill="#000000">&#45;5</text>
</g>
<!-- &#45;5&#45;&gt;Home Bet -->
<g id="edge1" class="edge">
<title>&#45;5&#45;&gt;Home Bet</title>
<path fill="none" stroke="#00ff00" stroke-width=".1716" stroke-dasharray="1,5" d="M187.1403,-221.7651C173.3674,-211.1487 149.9588,-193.1052 129.8084,-177.5731"/>
<polygon fill="#00ff00" stroke="#00ff00" stroke-width=".1716" points="131.7558,-174.6551 121.6989,-171.3222 127.4823,-180.1992 131.7558,-174.6551"/>
</g>
<!-- &#45;5&#45;&gt;Away Bet -->
<g id="edge3" class="edge">
<title>&#45;5&#45;&gt;Away Bet</title>
<path fill="none" stroke="#00ff00" stroke-width=".246" stroke-dasharray="1,5" d="M192.6797,-221.7631C187.0436,-213.0129 179.2036,-199.2136 176,-185.9066 168.203,-153.5194 162.6011,-141.4525 176,-110.9533 184.3323,-91.987 200.2444,-75.7684 215.6969,-63.4317"/>
<polygon fill="#00ff00" stroke="#00ff00" stroke-width=".246" points="217.8593,-66.1843 223.6931,-57.3402 213.6173,-60.616 217.8593,-66.1843"/>
</g>
<!-- &#45;5&#45;&gt;No Bet -->
<g id="edge14" class="edge">
<title>&#45;5&#45;&gt;No Bet</title>
<path fill="none" stroke="#ff0000" stroke-width=".2907" stroke-dasharray="1,5" d="M200.7734,-221.7651C202.3913,-213.4254 204.8983,-200.5023 207.3597,-187.8139"/>
<polygon fill="#ff0000" stroke="#ff0000" stroke-width=".2907" points="210.8376,-188.2639 209.3062,-177.7803 203.9657,-186.9307 210.8376,-188.2639"/>
</g>
<!-- &#45;5&#45;&gt;Bet Size -->
<g id="edge9" class="edge">
<title>&#45;5&#45;&gt;Bet Size</title>
<path fill="none" stroke="#ff0000" stroke-width=".1135" stroke-dasharray="1,5" d="M210.5275,-221.7784C221.7618,-212.8117 239.257,-198.6591 254,-185.9066 257.0314,-183.2845 260.1592,-180.526 263.2722,-177.7444"/>
<polygon fill="#ff0000" stroke="#ff0000" stroke-width=".1135" points="265.8364,-180.145 270.9164,-170.8474 261.1471,-174.9477 265.8364,-180.145"/>
</g>
<!-- 214&#45;&gt;Away Bet -->
<g id="edge15" class="edge">
<title>214&#45;&gt;Away Bet</title>
<path fill="none" stroke="#ff0000" stroke-width=".3" d="M391.1657,-131.8919C385.0337,-125.0346 377.5149,-117.2323 370,-110.9533 347.508,-92.1604 319.9363,-74.2713 297.5425,-60.8502"/>
<polygon fill="#ff0000" stroke="#ff0000" stroke-width=".3" points="299.311,-57.8298 288.9223,-55.75 295.7465,-63.8544 299.311,-57.8298"/>
</g>
</g>
</svg>
